<?xml version="1.0" encoding="UTF-8"?>
<!DOCTYPE svg PUBLIC "-//W3C//DTD SVG 1.1//EN" "http://www.w3.org/Graphics/SVG/1.1/DTD/svg11.dtd">
<svg xmlns="http://www.w3.org/2000/svg" version="1.1" width="400px" height="400px" style="shape-rendering:geometricPrecision; text-rendering:geometricPrecision; image-rendering:optimizeQuality; fill-rule:evenodd; clip-rule:evenodd" xmlns:xlink="http://www.w3.org/1999/xlink">
<g><path style="opacity:1" fill="#56718a" d="M -0.5,-0.5 C 132.833,-0.5 266.167,-0.5 399.5,-0.5C 399.5,132.833 399.5,266.167 399.5,399.5C 266.167,399.5 132.833,399.5 -0.5,399.5C -0.5,266.167 -0.5,132.833 -0.5,-0.5 Z"/></g>
<g><path style="opacity:1" fill="#2a2728" d="M 336.5,96.5 C 355.694,95.2095 363.528,104.21 360,123.5C 348.98,144.227 348.814,165.06 359.5,186C 356.571,186.777 353.737,186.61 351,185.5C 344.662,172.45 343.995,159.117 349,145.5C 353.541,136.669 355.874,127.336 356,117.5C 352.25,100.981 342.083,95.4808 325.5,101C 328.181,103.194 329.681,106.027 330,109.5C 330.333,132.167 330.667,154.833 331,177.5C 331.532,180.264 332.366,182.93 333.5,185.5C 329.205,186.661 324.871,186.828 320.5,186C 321.85,184.282 323.017,182.448 324,180.5C 324.667,155.167 324.667,129.833 324,104.5C 323.64,102.579 322.806,100.912 321.5,99.5C 326.749,98.9961 331.749,97.9961 336.5,96.5 Z"/></g>
<g><path style="opacity:1" fill="#2b292a" d="M 37.5,98.5 C 41.6829,97.1889 46.0162,97.1889 50.5,98.5C 50.1924,99.3081 49.6924,99.9747 49,100.5C 48.3333,111.833 48.3333,123.167 49,134.5C 50.9121,132.343 52.5787,130.009 54,127.5C 56.5888,125.789 59.0888,123.955 61.5,122C 64.8168,121.502 68.1501,121.335 71.5,121.5C 71.6661,115.824 71.4994,110.157 71,104.5C 70.3581,102.238 69.5248,100.071 68.5,98C 72.8333,97.3333 77.1667,97.3333 81.5,98C 80.5399,99.4194 79.7065,100.919 79,102.5C 78.3333,128.5 78.3333,154.5 79,180.5C 79.4497,182.519 80.283,184.352 81.5,186C 77.1667,186.667 72.8333,186.667 68.5,186C 69.717,184.352 70.5503,182.519 71,180.5C 71.4999,163.17 71.6666,145.837 71.5,128.5C 62.2822,126.286 55.1155,128.953 50,136.5C 48.8959,144.941 48.3959,153.441 48.5,162C 48.6667,169.167 48.8333,176.333 49,183.5C 49.3742,184.416 49.8742,185.25 50.5,186C 46.1667,186.667 41.8333,186.667 37.5,186C 38.7014,185.097 39.5348,183.931 40,182.5C 40.6667,155.5 40.6667,128.5 40,101.5C 39.6232,100.058 38.7899,99.0577 37.5,98.5 Z"/></g>
<g><path style="opacity:1" fill="#2b2827" d="M 155.5,179.5 C 155.751,181.17 156.418,182.67 157.5,184C 162.5,184.667 167.5,184.667 172.5,184C 173.667,182.833 174.833,181.667 176,180.5C 176.667,176.833 176.667,173.167 176,169.5C 173.819,164.474 171.652,159.474 169.5,154.5C 168.201,147.145 170.867,141.811 177.5,138.5C 178.656,139.576 178.489,140.576 177,141.5C 175.831,149.802 177.331,157.469 181.5,164.5C 184.6,179.393 178.6,186.726 163.5,186.5C 157.833,186.5 152.167,186.5 146.5,186.5C 145.761,186.631 145.094,186.464 144.5,186C 145.971,184.417 146.971,182.583 147.5,180.5C 148.497,163.008 148.83,145.341 148.5,127.5C 148.666,119.826 148.5,112.159 148,104.5C 146.882,102.235 146.049,99.9013 145.5,97.5C 149.555,97.1758 153.555,97.5091 157.5,98.5C 156.391,100.385 155.557,102.385 155,104.5C 154.17,129.67 154.337,154.67 155.5,179.5 Z"/></g>
<g><path style="opacity:1" fill="#2a2828" d="M 300.5,186.5 C 298.302,186.591 297.969,185.925 299.5,184.5C 300.268,183.737 300.768,182.737 301,181.5C 301.833,167.155 301.666,152.822 300.5,138.5C 290.877,135.978 284.21,139.311 280.5,148.5C 278.552,150.32 277.552,152.654 277.5,155.5C 276.549,156.919 276.216,158.585 276.5,160.5C 276.334,167.175 276.5,173.842 277,180.5C 277.346,182.218 277.846,183.885 278.5,185.5C 278.376,186.107 278.043,186.44 277.5,186.5C 275.167,186.5 272.833,186.5 270.5,186.5C 268.818,179.288 268.152,171.955 268.5,164.5C 268.575,161.794 268.908,159.127 269.5,156.5C 271.008,154.819 272.008,152.819 272.5,150.5C 273.11,149.609 273.443,148.609 273.5,147.5C 275.539,143.623 278.039,139.957 281,136.5C 281.667,132.833 281.667,129.167 281,125.5C 277.607,121.777 274.607,117.777 272,113.5C 268.524,106.201 270.358,101.035 277.5,98C 288.833,97.3333 300.167,97.3333 311.5,98C 310.789,99.2547 309.956,100.421 309,101.5C 308.333,128.167 308.333,154.833 309,181.5C 309.273,183.329 310.107,184.829 311.5,186C 307.848,186.499 304.182,186.665 300.5,186.5 Z"/></g>
<g><path style="opacity:1" fill="#546f88" d="M 282.5,99.5 C 288.593,99.1392 294.593,99.6392 300.5,101C 301.819,111.439 301.819,121.939 300.5,132.5C 297.127,131.225 293.793,131.392 290.5,133C 287,135.167 284.167,138 282,141.5C 282.306,139.177 282.972,136.844 284,134.5C 284.077,126.712 282.077,119.379 278,112.5C 276.243,106.825 277.743,102.492 282.5,99.5 Z"/></g>
<g><path style="opacity:1" fill="#2b292a" d="M 125.5,122.5 C 125.664,125.187 125.497,127.854 125,130.5C 115.629,126.281 107.963,128.281 102,136.5C 98.8697,144.548 98.7031,152.548 101.5,160.5C 102.343,170.873 107.01,179.04 115.5,185C 118.039,185.796 120.372,185.629 122.5,184.5C 131.901,178.813 132.901,171.813 125.5,163.5C 123.87,160.108 122.536,156.608 121.5,153C 121.821,150.195 122.821,147.695 124.5,145.5C 125.791,145.263 126.791,145.596 127.5,146.5C 127.41,149.152 128.076,151.485 129.5,153.5C 132.752,158.26 134.419,163.594 134.5,169.5C 133.807,174.252 132.14,178.586 129.5,182.5C 126.35,186.075 122.35,188.075 117.5,188.5C 111.856,187.517 106.856,185.184 102.5,181.5C 99.3891,177.613 97.0557,173.28 95.5,168.5C 89.4761,148.548 90.3094,128.881 98,109.5C 100.833,104 105,99.8333 110.5,97C 117.089,96.0075 123.422,96.8408 129.5,99.5C 134.859,96.4422 135.859,97.7756 132.5,103.5C 128.374,105.447 124.04,105.947 119.5,105C 116.654,102.827 113.488,101.327 110,100.5C 107.849,100.643 106.182,101.643 105,103.5C 101.289,111.416 98.9552,119.749 98,128.5C 97.3333,132.833 97.3333,137.167 98,141.5C 101.015,132.484 106.849,125.984 115.5,122C 118.888,121.341 122.221,121.508 125.5,122.5 Z"/></g>
<g><path style="opacity:1" fill="#778a9e" d="M 197.5,107.5 C 198.363,109.421 199.029,111.421 199.5,113.5C 196.423,113.347 193.589,114.014 191,115.5C 188.849,115.357 187.182,114.357 186,112.5C 185.517,113.448 185.351,114.448 185.5,115.5C 182.307,117.508 178.807,118.841 175,119.5C 176.867,115.473 180.034,112.473 184.5,110.5C 181.825,109.004 179.825,109.671 178.5,112.5C 176.885,113.154 175.218,113.654 173.5,114C 173.167,117 171.5,118.667 168.5,119C 169.598,119.77 169.598,120.603 168.5,121.5C 165.472,123.14 162.139,123.974 158.5,124C 157.309,124.698 156.309,125.531 155.5,126.5C 155.5,120.833 155.5,115.167 155.5,109.5C 158.514,109.148 161.014,107.815 163,105.5C 165.524,106.104 168.024,106.771 170.5,107.5C 172.896,105.933 175.563,105.1 178.5,105C 180.833,101.573 182,102.073 182,106.5C 184.667,105.833 187.333,105.167 190,104.5C 190.711,106.367 190.211,107.867 188.5,109C 189,109.167 189.5,109.333 190,109.5C 192.319,108.129 194.819,107.462 197.5,107.5 Z"/></g>
<g><path style="opacity:1" fill="#929fae" d="M 199.5,113.5 C 200.404,114.209 200.737,115.209 200.5,116.5C 198.146,117.432 195.979,118.765 194,120.5C 192.062,118.322 190.229,118.656 188.5,121.5C 186.034,122.123 183.701,122.957 181.5,124C 178.833,124.667 176.167,124.667 173.5,124C 172.1,122.562 170.433,121.729 168.5,121.5C 169.598,120.603 169.598,119.77 168.5,119C 171.5,118.667 173.167,117 173.5,114C 175.218,113.654 176.885,113.154 178.5,112.5C 179.825,109.671 181.825,109.004 184.5,110.5C 180.034,112.473 176.867,115.473 175,119.5C 178.807,118.841 182.307,117.508 185.5,115.5C 185.351,114.448 185.517,113.448 186,112.5C 187.182,114.357 188.849,115.357 191,115.5C 193.589,114.014 196.423,113.347 199.5,113.5 Z"/></g>
<g><path style="opacity:1" fill="#a5abb5" d="M 200.5,116.5 C 201.809,123.266 201.809,129.932 200.5,136.5C 200.665,132.818 200.499,129.152 200,125.5C 198.431,124.878 196.764,124.544 195,124.5C 189.839,125.06 184.673,125.56 179.5,126C 178.579,127.756 177.412,127.923 176,126.5C 173.205,128.146 170.705,130.146 168.5,132.5C 164.203,131.537 159.87,131.537 155.5,132.5C 155.5,130.5 155.5,128.5 155.5,126.5C 156.309,125.531 157.309,124.698 158.5,124C 162.139,123.974 165.472,123.14 168.5,121.5C 170.433,121.729 172.1,122.562 173.5,124C 176.167,124.667 178.833,124.667 181.5,124C 183.701,122.957 186.034,122.123 188.5,121.5C 190.229,118.656 192.062,118.322 194,120.5C 195.979,118.765 198.146,117.432 200.5,116.5 Z"/></g>
<g><path style="opacity:1" fill="#637c92" d="M 147.5,125.5 C 145.109,127.642 142.443,127.975 139.5,126.5C 139.899,129.53 139.399,132.53 138,135.5C 132.505,137.489 129.005,141.156 127.5,146.5C 126.791,145.596 125.791,145.263 124.5,145.5C 123.687,139.183 121.854,138.85 119,144.5C 115.987,142.785 113.32,143.452 111,146.5C 109.951,144.893 108.451,144.227 106.5,144.5C 106.33,145.822 106.663,146.989 107.5,148C 105.31,152.111 103.31,156.277 101.5,160.5C 98.7031,152.548 98.8697,144.548 102,136.5C 107.963,128.281 115.629,126.281 125,130.5C 125.497,127.854 125.664,125.187 125.5,122.5C 129.01,117.165 133.843,113.498 140,111.5C 142.342,112.178 144.676,111.845 147,110.5C 147.499,115.489 147.666,120.489 147.5,125.5 Z"/></g>
<g><path style="opacity:1" fill="#557088" d="M 299.5,184.5 C 298.181,179.963 297.347,175.297 297,170.5C 296.617,169.944 296.117,169.611 295.5,169.5C 296.506,164.021 295.173,159.021 291.5,154.5C 287.367,153.243 283.701,151.243 280.5,148.5C 284.21,139.311 290.877,135.978 300.5,138.5C 301.666,152.822 301.833,167.155 301,181.5C 300.768,182.737 300.268,183.737 299.5,184.5 Z"/></g>
<g><path style="opacity:1" fill="#aab1ba" d="M 147.5,154.5 C 145.955,153.77 145.122,152.437 145,150.5C 144.167,151.333 143.333,152.167 142.5,153C 143.833,154 143.833,155 142.5,156C 143.357,156.689 144.023,157.522 144.5,158.5C 144.154,159.696 143.654,159.696 143,158.5C 140.63,162.681 137.797,166.348 134.5,169.5C 134.419,163.594 132.752,158.26 129.5,153.5C 129.351,152.448 129.517,151.448 130,150.5C 132.333,148.5 134.667,146.5 137,144.5C 139.45,140.579 141.116,136.245 142,131.5C 143.626,131.854 145.459,131.854 147.5,131.5C 147.5,139.167 147.5,146.833 147.5,154.5 Z"/></g>
<g><path style="opacity:1" fill="#838f9d" d="M 147.5,125.5 C 147.328,126.492 147.662,127.158 148.5,127.5C 148.83,145.341 148.497,163.008 147.5,180.5C 147.5,171.833 147.5,163.167 147.5,154.5C 147.5,146.833 147.5,139.167 147.5,131.5C 145.459,131.854 143.626,131.854 142,131.5C 141.116,136.245 139.45,140.579 137,144.5C 134.667,146.5 132.333,148.5 130,150.5C 129.517,151.448 129.351,152.448 129.5,153.5C 128.076,151.485 127.41,149.152 127.5,146.5C 129.005,141.156 132.505,137.489 138,135.5C 139.399,132.53 139.899,129.53 139.5,126.5C 142.443,127.975 145.109,127.642 147.5,125.5 Z"/></g>
<g><path style="opacity:1" fill="#8091a4" d="M 250.5,115.5 C 256.691,115.51 260.524,118.51 262,124.5C 265.916,127.097 268.249,130.764 269,135.5C 272.722,137.169 273.556,139.836 271.5,143.5C 271.803,145.114 272.47,146.448 273.5,147.5C 273.443,148.609 273.11,149.609 272.5,150.5C 271.226,149.811 271.226,148.977 272.5,148C 270.603,146.89 268.77,146.724 267,147.5C 263.888,144.194 260.055,142.361 255.5,142C 254.274,140.365 252.941,138.865 251.5,137.5C 250.614,138.325 250.281,139.325 250.5,140.5C 249.186,132.265 249.186,123.932 250.5,115.5 Z"/></g>
<g><path style="opacity:1" fill="#9aa5b2" d="M 272.5,150.5 C 272.008,152.819 271.008,154.819 269.5,156.5C 267.26,155.736 264.927,154.902 262.5,154C 263.167,153.667 263.833,153.333 264.5,153C 262.899,152.727 261.399,152.227 260,151.5C 258.378,152.099 256.878,152.766 255.5,153.5C 254.883,153.389 254.383,153.056 254,152.5C 252.924,148.441 251.757,144.441 250.5,140.5C 250.281,139.325 250.614,138.325 251.5,137.5C 252.941,138.865 254.274,140.365 255.5,142C 260.055,142.361 263.888,144.194 267,147.5C 268.77,146.724 270.603,146.89 272.5,148C 271.226,148.977 271.226,149.811 272.5,150.5 Z"/></g>
<g><path style="opacity:1" fill="#c5c2be" d="M 200.5,136.5 C 200.663,138.857 200.497,141.19 200,143.5C 197.792,149.073 195.292,154.406 192.5,159.5C 191.317,159.844 190.484,159.178 190,157.5C 189.517,158.448 189.351,159.448 189.5,160.5C 187.076,160.192 184.743,160.526 182.5,161.5C 181.873,162.417 181.539,163.417 181.5,164.5C 177.331,157.469 175.831,149.802 177,141.5C 178.489,140.576 178.656,139.576 177.5,138.5C 170.867,141.811 168.201,147.145 169.5,154.5C 167.774,154.185 166.107,154.019 164.5,154C 165.237,157.618 166.237,161.118 167.5,164.5C 165.801,164.34 164.134,164.506 162.5,165C 163.451,165.718 163.617,166.551 163,167.5C 159.272,165.617 156.772,166.95 155.5,171.5C 155.5,158.5 155.5,145.5 155.5,132.5C 159.87,131.537 164.203,131.537 168.5,132.5C 170.705,130.146 173.205,128.146 176,126.5C 177.412,127.923 178.579,127.756 179.5,126C 184.673,125.56 189.839,125.06 195,124.5C 196.764,124.544 198.431,124.878 200,125.5C 200.499,129.152 200.665,132.818 200.5,136.5 Z"/></g>
<g><path style="opacity:1" fill="#2d2a2a" d="M 205.5,108.5 C 206.275,113.797 206.608,119.13 206.5,124.5C 206.5,124.833 206.5,125.167 206.5,125.5C 204.898,136.299 201.898,146.633 197.5,156.5C 196.412,166.482 199.412,174.982 206.5,182C 212.072,185.752 216.739,184.752 220.5,179C 221.287,176.901 221.62,174.734 221.5,172.5C 221.5,158.167 221.5,143.833 221.5,129.5C 221.5,126.167 221.5,122.833 221.5,119.5C 221.5,115.833 221.5,112.167 221.5,108.5C 222.1,104.484 221.1,100.984 218.5,98C 223.167,97.3333 227.833,97.3333 232.5,98C 230.859,99.129 229.859,100.629 229.5,102.5C 228.167,127.5 228.167,152.5 229.5,177.5C 232.927,184.212 237.927,185.712 244.5,182C 252.043,174.811 254.71,166.311 252.5,156.5C 250.754,150.126 248.754,143.793 246.5,137.5C 245.083,134.002 244.417,130.335 244.5,126.5C 244.5,125.833 244.5,125.167 244.5,124.5C 244.334,118.491 244.501,112.491 245,106.5C 246.741,103.691 247.908,100.691 248.5,97.5C 251.572,97.1826 254.572,97.5159 257.5,98.5C 254.412,103.843 252.079,109.509 250.5,115.5C 249.186,123.932 249.186,132.265 250.5,140.5C 251.757,144.441 252.924,148.441 254,152.5C 254.383,153.056 254.883,153.389 255.5,153.5C 257.993,159.56 258.993,165.893 258.5,172.5C 257.078,180.25 252.745,185.584 245.5,188.5C 242.813,188.664 240.146,188.497 237.5,188C 234.048,184.195 229.881,181.695 225,180.5C 222.121,180.049 220.288,181.215 219.5,184C 207.786,191.651 198.953,189.151 193,176.5C 191.243,170.884 191.077,165.217 192.5,159.5C 195.292,154.406 197.792,149.073 200,143.5C 200.497,141.19 200.663,138.857 200.5,136.5C 201.809,129.932 201.809,123.266 200.5,116.5C 200.737,115.209 200.404,114.209 199.5,113.5C 199.029,111.421 198.363,109.421 197.5,107.5C 196.142,104.126 194.809,100.793 193.5,97.5C 201.113,96.9663 205.113,100.633 205.5,108.5 Z"/></g>
<g><path style="opacity:1" fill="#aeb3ba" d="M 229.5,124.5 C 231.019,127.114 232.352,129.947 233.5,133C 235.5,133.333 237.5,133.667 239.5,134C 241.309,136.238 243.642,137.405 246.5,137.5C 248.754,143.793 250.754,150.126 252.5,156.5C 251.167,156.5 249.833,156.5 248.5,156.5C 248.5,155.167 248.5,153.833 248.5,152.5C 247.5,152.5 246.5,152.5 245.5,152.5C 245.719,151.325 245.386,150.325 244.5,149.5C 243.813,151.274 242.98,152.941 242,154.5C 241.5,153.5 241,152.5 240.5,151.5C 240.846,150.304 241.346,150.304 242,151.5C 241.872,149.555 242.038,147.722 242.5,146C 241.207,145.51 239.873,145.343 238.5,145.5C 238.36,143.876 239.027,142.71 240.5,142C 239.62,140.644 239.286,139.144 239.5,137.5C 235.994,136.752 232.66,135.419 229.5,133.5C 229.5,130.5 229.5,127.5 229.5,124.5 Z"/></g>
<g><path style="opacity:1" fill="#a5adb8" d="M 221.5,119.5 C 221.5,122.833 221.5,126.167 221.5,129.5C 219.049,127.522 216.382,127.189 213.5,128.5C 211.026,127.68 208.693,126.68 206.5,125.5C 206.5,125.167 206.5,124.833 206.5,124.5C 207.468,122.393 207.802,120.059 207.5,117.5C 209.591,117.682 211.591,117.348 213.5,116.5C 216.207,117.578 218.874,118.578 221.5,119.5 Z"/></g>
<g><path style="opacity:1" fill="#99a4b2" d="M 244.5,126.5 C 244.417,130.335 245.083,134.002 246.5,137.5C 243.642,137.405 241.309,136.238 239.5,134C 237.5,133.667 235.5,133.333 233.5,133C 232.352,129.947 231.019,127.114 229.5,124.5C 229.336,121.813 229.503,119.146 230,116.5C 234.85,117.518 236.683,120.518 235.5,125.5C 238.609,125.264 241.609,125.597 244.5,126.5 Z"/></g>
<g><path style="opacity:1" fill="#828e9b" d="M 229.5,102.5 C 229.232,105.119 229.565,107.619 230.5,110C 235.695,111.532 240.028,113.365 243.5,115.5C 243.19,118.713 243.523,121.713 244.5,124.5C 244.5,125.167 244.5,125.833 244.5,126.5C 241.609,125.597 238.609,125.264 235.5,125.5C 236.683,120.518 234.85,117.518 230,116.5C 229.503,119.146 229.336,121.813 229.5,124.5C 229.5,127.5 229.5,130.5 229.5,133.5C 229.5,145.5 229.5,157.5 229.5,169.5C 229.5,172.167 229.5,174.833 229.5,177.5C 228.167,152.5 228.167,127.5 229.5,102.5 Z"/></g>
<g><path style="opacity:1" fill="#8091a2" d="M 221.5,108.5 C 221.5,112.167 221.5,115.833 221.5,119.5C 218.874,118.578 216.207,117.578 213.5,116.5C 211.591,117.348 209.591,117.682 207.5,117.5C 207.802,120.059 207.468,122.393 206.5,124.5C 206.608,119.13 206.275,113.797 205.5,108.5C 211.1,107.232 216.434,107.232 221.5,108.5 Z"/></g>
<g><path style="opacity:1" fill="#c1c0bd" d="M 229.5,133.5 C 232.66,135.419 235.994,136.752 239.5,137.5C 239.286,139.144 239.62,140.644 240.5,142C 239.027,142.71 238.36,143.876 238.5,145.5C 239.873,145.343 241.207,145.51 242.5,146C 242.038,147.722 241.872,149.555 242,151.5C 241.346,150.304 240.846,150.304 240.5,151.5C 241,152.5 241.5,153.5 242,154.5C 242.98,152.941 243.813,151.274 244.5,149.5C 245.386,150.325 245.719,151.325 245.5,152.5C 246.5,152.5 247.5,152.5 248.5,152.5C 248.5,153.833 248.5,155.167 248.5,156.5C 248.631,157.376 248.298,158.043 247.5,158.5C 245.544,157.452 243.544,156.952 241.5,157C 240.072,160.474 240.572,160.974 243,158.5C 243.315,159.908 242.982,161.241 242,162.5C 241.667,162.167 241.333,161.833 241,161.5C 237.727,164.672 234.394,167.672 231,170.5C 230.617,169.944 230.117,169.611 229.5,169.5C 229.5,157.5 229.5,145.5 229.5,133.5 Z"/></g>
<g><path style="opacity:1" fill="#c6c3be" d="M 206.5,125.5 C 208.693,126.68 211.026,127.68 213.5,128.5C 216.382,127.189 219.049,127.522 221.5,129.5C 221.5,143.833 221.5,158.167 221.5,172.5C 219.815,171.816 218.815,170.483 218.5,168.5C 218.709,167.914 219.043,167.414 219.5,167C 217.377,166.185 215.377,165.185 213.5,164C 214.451,163.282 214.617,162.449 214,161.5C 213,162.167 212,162.833 211,163.5C 209.312,161.152 207.478,160.985 205.5,163C 206.624,163.249 207.624,163.749 208.5,164.5C 204.899,168.877 202.566,168.211 201.5,162.5C 204.149,158.425 202.815,156.425 197.5,156.5C 201.898,146.633 204.898,136.299 206.5,125.5 Z"/></g>
<g><path style="opacity:1" fill="#b9b9b8" d="M 269.5,156.5 C 268.908,159.127 268.575,161.794 268.5,164.5C 266.567,164.271 264.9,163.438 263.5,162C 265.007,161.163 265.507,159.996 265,158.5C 263.527,158.132 262.027,158.632 260.5,160C 261.167,160.333 261.833,160.667 262.5,161C 261.22,163.132 261.22,165.298 262.5,167.5C 261.726,168.711 260.893,168.711 260,167.5C 259.802,169.382 259.302,171.048 258.5,172.5C 258.993,165.893 257.993,159.56 255.5,153.5C 256.878,152.766 258.378,152.099 260,151.5C 261.399,152.227 262.899,152.727 264.5,153C 263.833,153.333 263.167,153.667 262.5,154C 264.927,154.902 267.26,155.736 269.5,156.5 Z"/></g>
<g><path style="opacity:1" fill="#7b8da0" d="M 124.5,145.5 C 122.821,147.695 121.821,150.195 121.5,153C 122.536,156.608 123.87,160.108 125.5,163.5C 124.325,163.281 123.325,163.614 122.5,164.5C 121.573,166.491 121.406,168.491 122,170.5C 121.1,168.602 119.934,166.936 118.5,165.5C 117.571,166.689 117.238,168.022 117.5,169.5C 114.093,169.125 113.593,170.125 116,172.5C 117.154,170.043 118.488,170.043 120,172.5C 120.49,173.793 120.657,175.127 120.5,176.5C 118.234,176.859 116.401,176.192 115,174.5C 113.989,175.337 112.822,175.67 111.5,175.5C 111.259,178.999 112.092,179.332 114,176.5C 114.507,177.996 114.007,179.163 112.5,180C 114.061,180.941 115.395,182.108 116.5,183.5C 118.396,184.466 120.396,184.799 122.5,184.5C 120.372,185.629 118.039,185.796 115.5,185C 107.01,179.04 102.343,170.873 101.5,160.5C 103.31,156.277 105.31,152.111 107.5,148C 106.663,146.989 106.33,145.822 106.5,144.5C 108.451,144.227 109.951,144.893 111,146.5C 113.32,143.452 115.987,142.785 119,144.5C 121.854,138.85 123.687,139.183 124.5,145.5 Z"/></g>
<g><path style="opacity:1" fill="#74889d" d="M 280.5,148.5 C 283.701,151.243 287.367,153.243 291.5,154.5C 295.173,159.021 296.506,164.021 295.5,169.5C 294.448,169.649 293.448,169.483 292.5,169C 288.372,164.887 284.705,160.554 281.5,156C 280.207,155.51 278.873,155.343 277.5,155.5C 277.552,152.654 278.552,150.32 280.5,148.5 Z"/></g>
<g><path style="opacity:1" fill="#d2cac1" d="M 197.5,156.5 C 202.815,156.425 204.149,158.425 201.5,162.5C 202.566,168.211 204.899,168.877 208.5,164.5C 207.624,163.749 206.624,163.249 205.5,163C 207.478,160.985 209.312,161.152 211,163.5C 212,162.833 213,162.167 214,161.5C 214.617,162.449 214.451,163.282 213.5,164C 215.377,165.185 217.377,166.185 219.5,167C 219.043,167.414 218.709,167.914 218.5,168.5C 218.815,170.483 219.815,171.816 221.5,172.5C 221.62,174.734 221.287,176.901 220.5,179C 216.739,184.752 212.072,185.752 206.5,182C 199.412,174.982 196.412,166.482 197.5,156.5 Z"/></g>
<g><path style="opacity:1" fill="#cec8bf" d="M 248.5,156.5 C 249.833,156.5 251.167,156.5 252.5,156.5C 254.71,166.311 252.043,174.811 244.5,182C 237.927,185.712 232.927,184.212 229.5,177.5C 229.5,174.833 229.5,172.167 229.5,169.5C 230.117,169.611 230.617,169.944 231,170.5C 234.394,167.672 237.727,164.672 241,161.5C 241.333,161.833 241.667,162.167 242,162.5C 242.982,161.241 243.315,159.908 243,158.5C 240.572,160.974 240.072,160.474 241.5,157C 243.544,156.952 245.544,157.452 247.5,158.5C 248.298,158.043 248.631,157.376 248.5,156.5 Z"/></g>
<g><path style="opacity:1" fill="#9fa8b3" d="M 125.5,163.5 C 132.901,171.813 131.901,178.813 122.5,184.5C 120.396,184.799 118.396,184.466 116.5,183.5C 115.395,182.108 114.061,180.941 112.5,180C 114.007,179.163 114.507,177.996 114,176.5C 112.092,179.332 111.259,178.999 111.5,175.5C 112.822,175.67 113.989,175.337 115,174.5C 116.401,176.192 118.234,176.859 120.5,176.5C 120.657,175.127 120.49,173.793 120,172.5C 118.488,170.043 117.154,170.043 116,172.5C 113.593,170.125 114.093,169.125 117.5,169.5C 117.238,168.022 117.571,166.689 118.5,165.5C 119.934,166.936 121.1,168.602 122,170.5C 121.406,168.491 121.573,166.491 122.5,164.5C 123.325,163.614 124.325,163.281 125.5,163.5 Z"/></g>
<g><path style="opacity:1" fill="#d2cac0" d="M 169.5,154.5 C 171.652,159.474 173.819,164.474 176,169.5C 176.667,173.167 176.667,176.833 176,180.5C 174.833,181.667 173.667,182.833 172.5,184C 167.5,184.667 162.5,184.667 157.5,184C 156.418,182.67 155.751,181.17 155.5,179.5C 155.5,176.833 155.5,174.167 155.5,171.5C 156.772,166.95 159.272,165.617 163,167.5C 163.617,166.551 163.451,165.718 162.5,165C 164.134,164.506 165.801,164.34 167.5,164.5C 166.237,161.118 165.237,157.618 164.5,154C 166.107,154.019 167.774,154.185 169.5,154.5 Z"/></g>
<g><path style="opacity:1" fill="#b3b6bc" d="M 129.5,182.5 C 129.682,184.591 129.348,186.591 128.5,188.5C 127.675,189.386 126.675,189.719 125.5,189.5C 125.5,191.167 125.5,192.833 125.5,194.5C 124.127,194.343 122.793,194.51 121.5,195C 122.747,196.458 122.747,197.958 121.5,199.5C 122.5,200.333 123.5,201.167 124.5,202C 123.577,204.041 123.244,206.208 123.5,208.5C 121.076,208.192 118.743,208.526 116.5,209.5C 116.624,210.107 116.957,210.44 117.5,210.5C 117.833,211.167 118.167,211.833 118.5,212.5C 118.662,214.527 118.495,216.527 118,218.5C 115.64,215.602 114.14,212.269 113.5,208.5C 113.881,206.259 114.048,203.926 114,201.5C 114.333,202.167 114.667,202.833 115,203.5C 115.193,201.506 116.027,199.672 117.5,198C 116.317,195.845 116.65,193.845 118.5,192C 117.5,191.667 116.5,191.333 115.5,191C 116.381,190.292 117.047,189.458 117.5,188.5C 122.35,188.075 126.35,186.075 129.5,182.5 Z"/></g>
<g><path style="opacity:1" fill="#c9c4be" d="M 268.5,164.5 C 268.152,171.955 268.818,179.288 270.5,186.5C 272.833,186.5 275.167,186.5 277.5,186.5C 280.865,189.756 281.865,193.589 280.5,198C 281.275,199.23 282.275,199.563 283.5,199C 282.327,195.89 282.827,195.723 285,198.5C 285,200.5 285,202.5 285,204.5C 285.893,205.711 286.726,205.711 287.5,204.5C 285.202,202.261 285.868,201.427 289.5,202C 289.167,202.333 288.833,202.667 288.5,203C 289.5,203.667 290.5,203.667 291.5,203C 290.304,202.346 290.304,201.846 291.5,201.5C 292.372,203.466 292.205,205.466 291,207.5C 289.844,206.007 289.01,206.174 288.5,208C 289.287,210.099 289.62,212.266 289.5,214.5C 286.294,215.697 283.627,217.697 281.5,220.5C 280.596,219.791 280.263,218.791 280.5,217.5C 279.448,217.649 278.448,217.483 277.5,217C 277.833,216.667 278.167,216.333 278.5,216C 277.809,214.933 277.309,213.766 277,212.5C 275.605,213.815 274.605,213.481 274,211.5C 273.215,215.989 275.048,218.655 279.5,219.5C 278.271,220.281 276.938,220.781 275.5,221C 275.667,223.5 275.833,226 276,228.5C 274.887,227.289 273.72,227.289 272.5,228.5C 272.167,227.833 271.833,227.167 271.5,226.5C 270.386,227.723 270.219,229.056 271,230.5C 271.654,229.304 272.154,229.304 272.5,230.5C 270.438,231.761 268.772,231.261 267.5,229C 266.207,228.51 264.873,228.343 263.5,228.5C 261.393,225.804 259.393,222.971 257.5,220C 259.348,216.132 262.015,212.965 265.5,210.5C 266.043,210.44 266.376,210.107 266.5,209.5C 264.167,208.167 261.833,208.167 259.5,209.5C 259.624,210.107 259.957,210.44 260.5,210.5C 257.773,219.799 255.107,219.799 252.5,210.5C 253.043,210.44 253.376,210.107 253.5,209.5C 250.833,208.167 248.167,208.167 245.5,209.5C 245.624,210.107 245.957,210.44 246.5,210.5C 249.317,213.457 251.65,216.79 253.5,220.5C 251.666,225.194 248.666,228.861 244.5,231.5C 244.167,231.5 243.833,231.5 243.5,231.5C 244.676,227.254 246.009,223.087 247.5,219C 247.37,217.941 246.87,217.108 246,216.5C 244.912,219.993 243.745,220.159 242.5,217C 243.357,216.311 244.023,215.478 244.5,214.5C 241.305,213.123 240.805,211.123 243,208.5C 245.146,207.624 246.979,206.291 248.5,204.5C 248.291,203.914 247.957,203.414 247.5,203C 251.073,200.578 251.406,197.745 248.5,194.5C 247.328,194.081 246.328,193.415 245.5,192.5C 246.705,191.005 246.705,189.672 245.5,188.5C 252.745,185.584 257.078,180.25 258.5,172.5C 259.302,171.048 259.802,169.382 260,167.5C 260.893,168.711 261.726,168.711 262.5,167.5C 261.22,165.298 261.22,163.132 262.5,161C 261.833,160.667 261.167,160.333 260.5,160C 262.027,158.632 263.527,158.132 265,158.5C 265.507,159.996 265.007,161.163 263.5,162C 264.9,163.438 266.567,164.271 268.5,164.5 Z"/></g>
<g><path style="opacity:1" fill="#dad0c3" d="M 192.5,159.5 C 191.077,165.217 191.243,170.884 193,176.5C 198.953,189.151 207.786,191.651 219.5,184C 220.288,181.215 222.121,180.049 225,180.5C 229.881,181.695 234.048,184.195 237.5,188C 240.146,188.497 242.813,188.664 245.5,188.5C 246.705,189.672 246.705,191.005 245.5,192.5C 246.328,193.415 247.328,194.081 248.5,194.5C 251.406,197.745 251.073,200.578 247.5,203C 247.957,203.414 248.291,203.914 248.5,204.5C 246.979,206.291 245.146,207.624 243,208.5C 240.805,211.123 241.305,213.123 244.5,214.5C 244.023,215.478 243.357,216.311 242.5,217C 243.745,220.159 244.912,219.993 246,216.5C 246.87,217.108 247.37,217.941 247.5,219C 246.009,223.087 244.676,227.254 243.5,231.5C 241.911,232.872 240.578,234.539 239.5,236.5C 238.604,235.494 237.938,235.494 237.5,236.5C 238.09,237.799 239.09,238.632 240.5,239C 238.212,239.822 235.878,240.489 233.5,241C 234.727,242.587 234.394,243.921 232.5,245C 231.123,246.241 229.79,246.408 228.5,245.5C 230.229,241.893 231.063,238.226 231,234.5C 232.74,233.284 233.74,231.618 234,229.5C 235.243,230.336 236.41,230.003 237.5,228.5C 235.08,225.642 232.58,225.309 230,227.5C 229.501,222.177 229.334,216.844 229.5,211.5C 229.5,210.833 229.833,210.5 230.5,210.5C 231.043,210.44 231.376,210.107 231.5,209.5C 228.833,208.167 226.167,208.167 223.5,209.5C 223.624,210.107 223.957,210.44 224.5,210.5C 225.117,210.611 225.617,210.944 226,211.5C 226.965,217.657 226.465,223.657 224.5,229.5C 218.998,232.829 215.165,231.496 213,225.5C 212.333,220.833 212.333,216.167 213,211.5C 213.383,210.944 213.883,210.611 214.5,210.5C 215.043,210.44 215.376,210.107 215.5,209.5C 212.5,208.167 209.5,208.167 206.5,209.5C 206.624,210.107 206.957,210.44 207.5,210.5C 208.117,210.611 208.617,210.944 209,211.5C 209.499,216.155 209.666,220.821 209.5,225.5C 208.027,226.071 206.36,226.071 204.5,225.5C 204.854,223.459 204.854,221.626 204.5,220C 205.167,219.667 205.833,219.333 206.5,219C 204.433,218.464 202.599,218.964 201,220.5C 200,219.833 199,219.167 198,218.5C 196.103,220.016 193.936,220.683 191.5,220.5C 191.5,218.5 191.5,216.5 191.5,214.5C 191.392,212.486 192.058,210.82 193.5,209.5C 190.976,208.2 188.309,208.2 185.5,209.5C 185.957,210.298 186.624,210.631 187.5,210.5C 185.482,211.858 183.649,213.525 182,215.5C 182.439,212.784 182.605,210.118 182.5,207.5C 181.288,205.077 179.288,204.077 176.5,204.5C 176.649,205.552 176.483,206.552 176,207.5C 175.667,207.167 175.333,206.833 175,206.5C 173.933,208.283 172.433,208.783 170.5,208C 173.368,205.411 176.368,203.078 179.5,201C 177.519,199.369 175.519,199.535 173.5,201.5C 172.769,205.172 171.269,205.839 169,203.5C 168.667,203.833 168.333,204.167 168,204.5C 168.897,201.284 169.731,197.951 170.5,194.5C 169.5,194.5 168.5,194.5 167.5,194.5C 167.119,192.058 167.786,191.391 169.5,192.5C 170.5,192.167 171.167,191.5 171.5,190.5C 170.372,189.738 169.205,189.071 168,188.5C 166.915,189.293 165.748,189.96 164.5,190.5C 164.595,189.309 164.262,187.975 163.5,186.5C 178.6,186.726 184.6,179.393 181.5,164.5C 181.539,163.417 181.873,162.417 182.5,161.5C 184.743,160.526 187.076,160.192 189.5,160.5C 189.351,159.448 189.517,158.448 190,157.5C 190.484,159.178 191.317,159.844 192.5,159.5 Z"/></g>
<g><path style="opacity:1" fill="#bbbbbb" d="M 276.5,160.5 C 277.82,161.942 279.486,162.608 281.5,162.5C 281.918,165.923 283.584,168.59 286.5,170.5C 287.047,174.261 289.047,176.928 292.5,178.5C 293.281,179.729 293.781,181.062 294,182.5C 294.718,181.549 295.551,181.383 296.5,182C 295.643,182.689 294.977,183.522 294.5,184.5C 295.706,187.079 297.039,189.579 298.5,192C 296.899,192.273 295.399,192.773 294,193.5C 293.549,191.071 292.715,190.904 291.5,193C 292.833,194.667 292.833,196.333 291.5,198C 292.938,199.241 294.438,199.741 296,199.5C 296.72,197.745 297.887,196.911 299.5,197C 298.065,199.943 296.398,202.777 294.5,205.5C 295.428,206.768 295.595,208.101 295,209.5C 293.188,211.3 291.355,212.967 289.5,214.5C 289.62,212.266 289.287,210.099 288.5,208C 289.01,206.174 289.844,206.007 291,207.5C 292.205,205.466 292.372,203.466 291.5,201.5C 290.304,201.846 290.304,202.346 291.5,203C 290.5,203.667 289.5,203.667 288.5,203C 288.833,202.667 289.167,202.333 289.5,202C 285.868,201.427 285.202,202.261 287.5,204.5C 286.726,205.711 285.893,205.711 285,204.5C 285,202.5 285,200.5 285,198.5C 282.827,195.723 282.327,195.89 283.5,199C 282.275,199.563 281.275,199.23 280.5,198C 281.865,193.589 280.865,189.756 277.5,186.5C 278.043,186.44 278.376,186.107 278.5,185.5C 277.846,183.885 277.346,182.218 277,180.5C 276.5,173.842 276.334,167.175 276.5,160.5 Z"/></g>
<g><path style="opacity:1" fill="#a3abb6" d="M 277.5,155.5 C 278.873,155.343 280.207,155.51 281.5,156C 284.705,160.554 288.372,164.887 292.5,169C 293.448,169.483 294.448,169.649 295.5,169.5C 296.117,169.611 296.617,169.944 297,170.5C 297.347,175.297 298.181,179.963 299.5,184.5C 297.969,185.925 298.302,186.591 300.5,186.5C 300.179,187.817 299.846,189.151 299.5,190.5C 300.676,194.086 302.009,197.586 303.5,201C 302.542,202.147 302.875,203.147 304.5,204C 304.647,206.792 303.98,209.625 302.5,212.5C 299.741,214.656 298.741,217.323 299.5,220.5C 298.047,223.425 297.047,226.425 296.5,229.5C 296.662,227.473 296.495,225.473 296,223.5C 294.318,224.865 294.151,226.365 295.5,228C 293.153,228.846 291.32,230.346 290,232.5C 289.5,231.333 288.667,230.5 287.5,230C 288.76,228.887 289.927,228.72 291,229.5C 291.699,227.926 291.365,226.593 290,225.5C 289.094,227.612 287.594,228.445 285.5,228C 284.533,225.228 283.199,222.728 281.5,220.5C 283.627,217.697 286.294,215.697 289.5,214.5C 291.355,212.967 293.188,211.3 295,209.5C 295.595,208.101 295.428,206.768 294.5,205.5C 296.398,202.777 298.065,199.943 299.5,197C 297.887,196.911 296.72,197.745 296,199.5C 294.438,199.741 292.938,199.241 291.5,198C 292.833,196.333 292.833,194.667 291.5,193C 292.715,190.904 293.549,191.071 294,193.5C 295.399,192.773 296.899,192.273 298.5,192C 297.039,189.579 295.706,187.079 294.5,184.5C 294.977,183.522 295.643,182.689 296.5,182C 295.551,181.383 294.718,181.549 294,182.5C 293.781,181.062 293.281,179.729 292.5,178.5C 289.047,176.928 287.047,174.261 286.5,170.5C 283.584,168.59 281.918,165.923 281.5,162.5C 279.486,162.608 277.82,161.942 276.5,160.5C 276.216,158.585 276.549,156.919 277.5,155.5 Z"/></g>
<g><path style="opacity:1" fill="#67686b" d="M 123.5,208.5 C 123.833,208.5 124.167,208.5 124.5,208.5C 124.5,208.833 124.5,209.167 124.5,209.5C 121.941,209.198 119.607,209.532 117.5,210.5C 116.957,210.44 116.624,210.107 116.5,209.5C 118.743,208.526 121.076,208.192 123.5,208.5 Z"/></g>
<g><path style="opacity:1" fill="#7f7972" d="M 193.5,209.5 C 191.265,209.205 189.265,209.539 187.5,210.5C 186.624,210.631 185.957,210.298 185.5,209.5C 188.309,208.2 190.976,208.2 193.5,209.5 Z"/></g>
<g><path style="opacity:1" fill="#817a72" d="M 214.5,210.5 C 212.167,209.167 209.833,209.167 207.5,210.5C 206.957,210.44 206.624,210.107 206.5,209.5C 209.5,208.167 212.5,208.167 215.5,209.5C 215.376,210.107 215.043,210.44 214.5,210.5 Z"/></g>
<g><path style="opacity:1" fill="#817b73" d="M 230.5,210.5 C 228.5,209.167 226.5,209.167 224.5,210.5C 223.957,210.44 223.624,210.107 223.5,209.5C 226.167,208.167 228.833,208.167 231.5,209.5C 231.376,210.107 231.043,210.44 230.5,210.5 Z"/></g>
<g><path style="opacity:1" fill="#706c6a" d="M 252.5,210.5 C 250.5,209.167 248.5,209.167 246.5,210.5C 245.957,210.44 245.624,210.107 245.5,209.5C 248.167,208.167 250.833,208.167 253.5,209.5C 253.376,210.107 253.043,210.44 252.5,210.5 Z"/></g>
<g><path style="opacity:1" fill="#75726e" d="M 265.5,210.5 C 263.833,209.167 262.167,209.167 260.5,210.5C 259.957,210.44 259.624,210.107 259.5,209.5C 261.833,208.167 264.167,208.167 266.5,209.5C 266.376,210.107 266.043,210.44 265.5,210.5 Z"/></g>
<g><path style="opacity:1" fill="#2d2b2b" d="M 124.5,209.5 C 123.833,210.5 123.167,211.5 122.5,212.5C 121.51,218.645 121.177,224.978 121.5,231.5C 124.059,231.802 126.393,231.468 128.5,230.5C 130.674,230.25 132.341,229.25 133.5,227.5C 133.822,228.858 133.822,230.525 133.5,232.5C 133.167,232.5 132.833,232.5 132.5,232.5C 127.305,232.821 122.305,232.487 117.5,231.5C 118.167,231.5 118.5,231.167 118.5,230.5C 119.806,224.401 119.806,218.401 118.5,212.5C 118.167,211.833 117.833,211.167 117.5,210.5C 119.607,209.532 121.941,209.198 124.5,209.5 Z"/></g>
<g><path style="opacity:1" fill="#2b2828" d="M 154.5,209.5 C 152.432,216.226 151.932,223.226 153,230.5C 153.717,231.044 154.217,231.711 154.5,232.5C 151.813,232.664 149.146,232.497 146.5,232C 147.667,231.5 148.5,230.667 149,229.5C 149.667,223.5 149.667,217.5 149,211.5C 148.25,210.874 147.416,210.374 146.5,210C 149.146,209.503 151.813,209.336 154.5,209.5 Z"/></g>
<g><path style="opacity:1" fill="#343030" d="M 187.5,210.5 C 189.265,209.539 191.265,209.205 193.5,209.5C 192.058,210.82 191.392,212.486 191.5,214.5C 190.833,220.5 190.167,226.5 189.5,232.5C 184.255,226.98 179.255,221.314 174.5,215.5C 174.217,214.711 173.717,214.044 173,213.5C 172.183,219.016 172.349,224.35 173.5,229.5C 173.5,230.833 174.167,231.5 175.5,231.5C 173.393,232.468 171.059,232.802 168.5,232.5C 169.441,230.95 170.107,229.284 170.5,227.5C 170.808,221.575 170.475,215.741 169.5,210C 171.167,209.333 172.833,209.333 174.5,210C 179.225,215.965 184.058,221.799 189,227.5C 189.667,222.167 189.667,216.833 189,211.5C 188.617,210.944 188.117,210.611 187.5,210.5 Z"/></g>
<g><path style="opacity:1" fill="#34302f" d="M 207.5,210.5 C 209.833,209.167 212.167,209.167 214.5,210.5C 213.883,210.611 213.383,210.944 213,211.5C 212.333,216.167 212.333,220.833 213,225.5C 215.165,231.496 218.998,232.829 224.5,229.5C 226.465,223.657 226.965,217.657 226,211.5C 225.617,210.944 225.117,210.611 224.5,210.5C 226.5,209.167 228.5,209.167 230.5,210.5C 229.833,210.5 229.5,210.833 229.5,211.5C 228.673,216.985 228.173,222.652 228,228.5C 226.893,231.113 225.06,232.78 222.5,233.5C 219.482,233.665 216.482,233.498 213.5,233C 211.506,230.842 210.172,228.342 209.5,225.5C 209.666,220.821 209.499,216.155 209,211.5C 208.617,210.944 208.117,210.611 207.5,210.5 Z"/></g>
<g><path style="opacity:1" fill="#302d2c" d="M 246.5,210.5 C 248.5,209.167 250.5,209.167 252.5,210.5C 255.107,219.799 257.773,219.799 260.5,210.5C 262.167,209.167 263.833,209.167 265.5,210.5C 262.015,212.965 259.348,216.132 257.5,220C 259.393,222.971 261.393,225.804 263.5,228.5C 264.167,229.833 265.167,230.833 266.5,231.5C 264.167,232.833 261.833,232.833 259.5,231.5C 259.238,228.303 257.738,225.303 255,222.5C 253.579,225.009 251.912,227.343 250,229.5C 249.308,230.437 249.475,231.103 250.5,231.5C 248.5,232.833 246.5,232.833 244.5,231.5C 248.666,228.861 251.666,225.194 253.5,220.5C 251.65,216.79 249.317,213.457 246.5,210.5 Z"/></g>
<g><path style="opacity:1" fill="#6e7075" d="M 122.5,212.5 C 122.5,218.5 122.5,224.5 122.5,230.5C 124.5,230.5 126.5,230.5 128.5,230.5C 126.393,231.468 124.059,231.802 121.5,231.5C 121.177,224.978 121.51,218.645 122.5,212.5 Z"/></g>
<g><path style="opacity:1" fill="#a9b0b9" d="M 124.5,208.5 C 125.914,210.044 126.247,211.711 125.5,213.5C 126.274,214.711 127.107,214.711 128,213.5C 128.882,217.027 128.382,217.693 126.5,215.5C 126.457,217.561 125.791,219.728 124.5,222C 124.833,222.167 125.167,222.333 125.5,222.5C 126.251,221.624 126.751,220.624 127,219.5C 127.179,221.424 127.346,223.091 127.5,224.5C 129.5,223.833 131.5,223.167 133.5,222.5C 134.052,224.003 134.052,225.669 133.5,227.5C 132.341,229.25 130.674,230.25 128.5,230.5C 126.5,230.5 124.5,230.5 122.5,230.5C 122.5,224.5 122.5,218.5 122.5,212.5C 123.167,211.5 123.833,210.5 124.5,209.5C 124.5,209.167 124.5,208.833 124.5,208.5 Z"/></g>
<g><path style="opacity:1" fill="#8797a8" d="M 102.5,181.5 C 106.856,185.184 111.856,187.517 117.5,188.5C 117.047,189.458 116.381,190.292 115.5,191C 116.5,191.333 117.5,191.667 118.5,192C 116.65,193.845 116.317,195.845 117.5,198C 116.027,199.672 115.193,201.506 115,203.5C 114.667,202.833 114.333,202.167 114,201.5C 114.048,203.926 113.881,206.259 113.5,208.5C 114.14,212.269 115.64,215.602 118,218.5C 118.495,216.527 118.662,214.527 118.5,212.5C 119.806,218.401 119.806,224.401 118.5,230.5C 117.448,230.649 116.448,230.483 115.5,230C 116.604,228.869 116.271,228.035 114.5,227.5C 110.872,229.009 107.872,228.176 105.5,225C 106.022,224.05 106.689,223.216 107.5,222.5C 105.102,221.272 103.268,221.938 102,224.5C 101.727,222.899 101.227,221.399 100.5,220C 101.167,219.667 101.833,219.333 102.5,219C 101.198,216.787 100.198,214.454 99.5,212C 101.478,209.503 101.978,206.669 101,203.5C 100.586,203.957 100.086,204.291 99.5,204.5C 97.6865,200.776 95.0198,198.109 91.5,196.5C 91.1774,192.774 91.5108,189.107 92.5,185.5C 93.6385,192.073 94.4718,192.073 95,185.5C 95.5885,187.863 97.0885,188.863 99.5,188.5C 99.5,186.5 99.5,184.5 99.5,182.5C 100.791,182.737 101.791,182.404 102.5,181.5 Z"/></g>
<g><path style="opacity:1" fill="#dfd4c4" d="M 174.5,215.5 C 179.255,221.314 184.255,226.98 189.5,232.5C 189.56,233.043 189.893,233.376 190.5,233.5C 191.492,229.217 191.826,224.884 191.5,220.5C 193.936,220.683 196.103,220.016 198,218.5C 199,219.167 200,219.833 201,220.5C 202.599,218.964 204.433,218.464 206.5,219C 205.833,219.333 205.167,219.667 204.5,220C 204.854,221.626 204.854,223.459 204.5,225.5C 206.36,226.071 208.027,226.071 209.5,225.5C 210.172,228.342 211.506,230.842 213.5,233C 216.482,233.498 219.482,233.665 222.5,233.5C 223.833,233.5 225.167,233.5 226.5,233.5C 226.5,234.5 226.5,235.5 226.5,236.5C 225.127,236.343 223.793,236.51 222.5,237C 222.833,237.333 223.167,237.667 223.5,238C 219.506,238.43 218.84,239.93 221.5,242.5C 220.389,243.611 219.722,244.945 219.5,246.5C 221.29,251.228 220.79,255.562 218,259.5C 217.986,257.402 218.153,255.569 218.5,254C 217.213,252.59 216.046,251.09 215,249.5C 213.916,250.665 213.083,251.998 212.5,253.5C 213.052,255.003 213.052,256.669 212.5,258.5C 209.216,258.277 206.049,257.61 203,256.5C 201.249,257.809 199.749,257.475 198.5,255.5C 195.848,257.582 192.848,258.915 189.5,259.5C 188.702,259.957 188.369,260.624 188.5,261.5C 185.585,261.746 182.585,262.079 179.5,262.5C 179.709,263.086 180.043,263.586 180.5,264C 178.549,266.565 176.216,267.732 173.5,267.5C 174.55,265.898 173.883,265.065 171.5,265C 173.221,264.261 174.887,263.427 176.5,262.5C 174.615,261.803 174.282,260.803 175.5,259.5C 173.517,258.018 171.684,256.351 170,254.5C 169.5,255 169,255.5 168.5,256C 169.337,257.011 169.67,258.178 169.5,259.5C 164.882,260.025 163.882,258.692 166.5,255.5C 164.922,254.702 163.256,254.202 161.5,254C 166.852,251.471 166.519,249.638 160.5,248.5C 158.638,246.138 157.471,243.471 157,240.5C 155.639,242.028 154.472,243.695 153.5,245.5C 155.758,249.1 155.758,252.6 153.5,256C 153.957,256.414 154.291,256.914 154.5,257.5C 152.623,256.915 150.956,257.582 149.5,259.5C 149.196,258.85 148.863,258.183 148.5,257.5C 150.797,251.976 152.63,246.31 154,240.5C 154.497,238.19 154.663,235.857 154.5,233.5C 155.705,232.328 155.705,230.995 154.5,229.5C 155.025,228.808 155.692,228.308 156.5,228C 155.898,226.096 156.398,224.263 158,222.5C 159.748,225.911 161.915,226.578 164.5,224.5C 165.086,224.709 165.586,225.043 166,225.5C 167.193,224.022 167.693,222.688 167.5,221.5C 168.731,222.651 168.731,223.817 167.5,225C 168.373,226.045 169.373,226.878 170.5,227.5C 170.107,229.284 169.441,230.95 168.5,232.5C 171.024,233.8 173.691,233.8 176.5,232.5C 176.376,231.893 176.043,231.56 175.5,231.5C 174.167,231.5 173.5,230.833 173.5,229.5C 173.181,224.637 173.514,219.97 174.5,215.5 Z"/></g>
<g><path style="opacity:1" fill="#928c84" d="M 174.5,215.5 C 173.514,219.97 173.181,224.637 173.5,229.5C 172.349,224.35 172.183,219.016 173,213.5C 173.717,214.044 174.217,214.711 174.5,215.5 Z"/></g>
<g><path style="opacity:1" fill="#c0bfbd" d="M 281.5,220.5 C 283.199,222.728 284.533,225.228 285.5,228C 287.594,228.445 289.094,227.612 290,225.5C 291.365,226.593 291.699,227.926 291,229.5C 289.927,228.72 288.76,228.887 287.5,230C 288.667,230.5 289.5,231.333 290,232.5C 291.32,230.346 293.153,228.846 295.5,228C 294.151,226.365 294.318,224.865 296,223.5C 296.495,225.473 296.662,227.473 296.5,229.5C 294.309,231.673 292.143,234.007 290,236.5C 288.273,237.694 286.44,237.694 284.5,236.5C 285.008,238.904 286.175,239.571 288,238.5C 288.804,244.706 286.47,249.373 281,252.5C 280.178,255.117 279.678,257.784 279.5,260.5C 278.386,261.885 277.386,263.385 276.5,265C 271.987,265.683 269.32,268.183 268.5,272.5C 266.279,271.708 264.279,271.374 262.5,271.5C 255.737,271.709 251.237,275.375 249,282.5C 247.629,284.041 246.129,285.375 244.5,286.5C 243.761,286.631 243.094,286.464 242.5,286C 244.193,284.287 245.526,282.287 246.5,280C 241.484,279.334 237.151,280.667 233.5,284C 230.078,284.71 226.911,285.876 224,287.5C 221.803,284.126 218.969,283.626 215.5,286C 213.557,289.332 212.39,289.166 212,285.5C 211.333,286.833 210.667,286.833 210,285.5C 209.517,286.448 209.351,287.448 209.5,288.5C 207.143,288.663 204.81,288.497 202.5,288C 203.673,284.89 203.173,284.723 201,287.5C 200.692,286.692 200.192,286.025 199.5,285.5C 193.733,289.142 187.733,289.475 181.5,286.5C 182.398,285.842 183.398,285.176 184.5,284.5C 184,284.167 183.5,283.833 183,283.5C 180.547,284.493 178.047,284.66 175.5,284C 173.113,282.108 170.447,280.942 167.5,280.5C 168.5,280.5 169.5,280.5 170.5,280.5C 170.222,278.654 170.889,277.32 172.5,276.5C 175.783,277.188 178.949,278.188 182,279.5C 182.333,278.833 182.667,278.167 183,277.5C 183.216,279.384 183.883,281.051 185,282.5C 191.088,281.258 196.921,279.258 202.5,276.5C 203.167,276.833 203.833,277.167 204.5,277.5C 200.625,278.486 200.625,279.653 204.5,281C 202.382,281.26 200.716,282.26 199.5,284C 200.333,284.167 201.167,284.333 202,284.5C 204.542,283.317 207.209,282.317 210,281.5C 210.772,281.645 211.439,281.978 212,282.5C 213.696,280.806 214.863,279.14 215.5,277.5C 216.496,277.586 217.329,277.252 218,276.5C 218.317,278.301 218.984,278.634 220,277.5C 223.354,281.086 227.02,281.42 231,278.5C 231.333,278.833 231.667,279.167 232,279.5C 232.483,278.552 232.649,277.552 232.5,276.5C 233.978,276.762 235.311,276.429 236.5,275.5C 239.368,273.248 242.368,271.082 245.5,269C 245.5,267.667 245.5,266.333 245.5,265C 247.5,265 249.5,265 251.5,265C 248.972,263.983 248.972,262.816 251.5,261.5C 248.056,260.739 244.723,259.572 241.5,258C 241.833,257.667 242.167,257.333 242.5,257C 241.338,256.173 240.171,255.34 239,254.5C 237.452,255.684 235.952,255.517 234.5,254C 237.692,251.219 240.858,251.052 244,253.5C 246.295,250.935 249.128,249.269 252.5,248.5C 250.369,248.662 249.369,247.329 249.5,244.5C 248.448,244.649 247.448,244.483 246.5,244C 248.56,241.126 250.893,238.46 253.5,236C 251.822,235.516 251.156,234.683 251.5,233.5C 251.672,232.508 251.338,231.842 250.5,231.5C 249.475,231.103 249.308,230.437 250,229.5C 251.912,227.343 253.579,225.009 255,222.5C 257.738,225.303 259.238,228.303 259.5,231.5C 258.957,231.56 258.624,231.893 258.5,232.5C 261.5,233.833 264.5,233.833 267.5,232.5C 267.376,231.893 267.043,231.56 266.5,231.5C 265.167,230.833 264.167,229.833 263.5,228.5C 264.873,228.343 266.207,228.51 267.5,229C 268.772,231.261 270.438,231.761 272.5,230.5C 272.154,229.304 271.654,229.304 271,230.5C 270.219,229.056 270.386,227.723 271.5,226.5C 271.833,227.167 272.167,227.833 272.5,228.5C 273.72,227.289 274.887,227.289 276,228.5C 275.833,226 275.667,223.5 275.5,221C 276.938,220.781 278.271,220.281 279.5,219.5C 275.048,218.655 273.215,215.989 274,211.5C 274.605,213.481 275.605,213.815 277,212.5C 277.309,213.766 277.809,214.933 278.5,216C 278.167,216.333 277.833,216.667 277.5,217C 278.448,217.483 279.448,217.649 280.5,217.5C 280.263,218.791 280.596,219.791 281.5,220.5 Z"/></g>
<g><path style="opacity:1" fill="#d1cac0" d="M 146.5,186.5 C 152.167,186.5 157.833,186.5 163.5,186.5C 164.262,187.975 164.595,189.309 164.5,190.5C 165.748,189.96 166.915,189.293 168,188.5C 169.205,189.071 170.372,189.738 171.5,190.5C 171.167,191.5 170.5,192.167 169.5,192.5C 167.786,191.391 167.119,192.058 167.5,194.5C 168.5,194.5 169.5,194.5 170.5,194.5C 169.731,197.951 168.897,201.284 168,204.5C 168.333,204.167 168.667,203.833 169,203.5C 171.269,205.839 172.769,205.172 173.5,201.5C 175.519,199.535 177.519,199.369 179.5,201C 176.368,203.078 173.368,205.411 170.5,208C 172.433,208.783 173.933,208.283 175,206.5C 175.333,206.833 175.667,207.167 176,207.5C 176.483,206.552 176.649,205.552 176.5,204.5C 179.288,204.077 181.288,205.077 182.5,207.5C 182.605,210.118 182.439,212.784 182,215.5C 183.649,213.525 185.482,211.858 187.5,210.5C 188.117,210.611 188.617,210.944 189,211.5C 189.667,216.833 189.667,222.167 189,227.5C 184.058,221.799 179.225,215.965 174.5,210C 172.833,209.333 171.167,209.333 169.5,210C 170.475,215.741 170.808,221.575 170.5,227.5C 169.373,226.878 168.373,226.045 167.5,225C 168.731,223.817 168.731,222.651 167.5,221.5C 167.693,222.688 167.193,224.022 166,225.5C 165.586,225.043 165.086,224.709 164.5,224.5C 161.915,226.578 159.748,225.911 158,222.5C 156.398,224.263 155.898,226.096 156.5,228C 155.692,228.308 155.025,228.808 154.5,229.5C 155.705,230.995 155.705,232.328 154.5,233.5C 154.5,233.167 154.5,232.833 154.5,232.5C 154.217,231.711 153.717,231.044 153,230.5C 151.932,223.226 152.432,216.226 154.5,209.5C 151.689,208.525 148.689,207.858 145.5,207.5C 145.167,205.5 144.833,203.5 144.5,201.5C 143.5,201.5 142.5,201.5 141.5,201.5C 143.632,195.215 142.466,194.215 138,198.5C 137.667,197.5 137.333,196.5 137,195.5C 134.601,197.712 132.101,197.545 129.5,195C 133.921,196.097 136.255,194.263 136.5,189.5C 138.787,189.276 140.953,188.609 143,187.5C 144.667,189.007 145.834,188.673 146.5,186.5 Z"/></g>
<g><path style="opacity:1" fill="#7c8ea2" d="M 95.5,168.5 C 97.0557,173.28 99.3891,177.613 102.5,181.5C 101.791,182.404 100.791,182.737 99.5,182.5C 99.5,184.5 99.5,186.5 99.5,188.5C 97.0885,188.863 95.5885,187.863 95,185.5C 94.4718,192.073 93.6385,192.073 92.5,185.5C 91.5108,189.107 91.1774,192.774 91.5,196.5C 95.0198,198.109 97.6865,200.776 99.5,204.5C 100.086,204.291 100.586,203.957 101,203.5C 101.978,206.669 101.478,209.503 99.5,212C 100.198,214.454 101.198,216.787 102.5,219C 101.833,219.333 101.167,219.667 100.5,220C 101.227,221.399 101.727,222.899 102,224.5C 103.268,221.938 105.102,221.272 107.5,222.5C 106.689,223.216 106.022,224.05 105.5,225C 107.872,228.176 110.872,229.009 114.5,227.5C 116.271,228.035 116.604,228.869 115.5,230C 116.448,230.483 117.448,230.649 118.5,230.5C 118.5,231.167 118.167,231.5 117.5,231.5C 116.957,231.56 116.624,231.893 116.5,232.5C 118.045,233.452 119.712,233.785 121.5,233.5C 122.189,234.707 122.355,236.041 122,237.5C 123.395,236.185 124.395,236.519 125,238.5C 125.333,241.5 125.667,244.5 126,247.5C 126.5,248 127,248.5 127.5,249C 126.977,250.614 125.644,252.114 123.5,253.5C 124.505,256.846 125.505,260.179 126.5,263.5C 123.068,259.891 119.735,256.058 116.5,252C 117.167,251.333 117.833,250.667 118.5,250C 115.946,247.602 115.946,245.269 118.5,243C 116.888,242.28 115.388,242.446 114,243.5C 113.667,242.833 113.333,242.167 113,241.5C 112.751,242.624 112.251,243.624 111.5,244.5C 110.41,243.273 109.076,242.44 107.5,242C 108.308,241.692 108.975,241.192 109.5,240.5C 107.954,239.316 106.287,238.316 104.5,237.5C 105.263,236.281 106.263,235.281 107.5,234.5C 107.167,233.5 106.5,232.833 105.5,232.5C 102.94,233.435 102.274,232.601 103.5,230C 102.91,228.491 102.244,226.991 101.5,225.5C 100.033,225.277 98.5333,224.944 97,224.5C 96.6667,225.5 96.3333,226.5 96,227.5C 95.6667,227.167 95.3333,226.833 95,226.5C 95.0464,228.313 94.8797,229.979 94.5,231.5C 94.0308,227.303 92.6974,223.47 90.5,220C 91.5171,218.951 91.6838,217.784 91,216.5C 89.738,214.697 88.0713,213.364 86,212.5C 84.7063,211.146 84.5396,209.812 85.5,208.5C 84.0065,207.859 83.0065,206.859 82.5,205.5C 84.0171,203.064 83.6838,200.898 81.5,199C 81.5451,196.364 81.7118,193.53 82,190.5C 83.3425,189.098 84.1758,189.431 84.5,191.5C 83.4371,194.517 83.6038,197.517 85,200.5C 87.5541,197.64 89.2207,194.307 90,190.5C 91.2776,184.448 91.9442,178.448 92,172.5C 92.0572,170.09 93.2239,168.756 95.5,168.5 Z"/></g>
<g><path style="opacity:1" fill="#6f6862" d="M 191.5,214.5 C 191.5,216.5 191.5,218.5 191.5,220.5C 191.826,224.884 191.492,229.217 190.5,233.5C 189.893,233.376 189.56,233.043 189.5,232.5C 190.167,226.5 190.833,220.5 191.5,214.5 Z"/></g>
<g><path style="opacity:1" fill="#63676d" d="M 117.5,231.5 C 122.305,232.487 127.305,232.821 132.5,232.5C 129.038,233.482 125.371,233.815 121.5,233.5C 119.712,233.785 118.045,233.452 116.5,232.5C 116.624,231.893 116.957,231.56 117.5,231.5 Z"/></g>
<g><path style="opacity:1" fill="#888178" d="M 175.5,231.5 C 176.043,231.56 176.376,231.893 176.5,232.5C 173.691,233.8 171.024,233.8 168.5,232.5C 171.059,232.802 173.393,232.468 175.5,231.5 Z"/></g>
<g><path style="opacity:1" fill="#7b7773" d="M 243.5,231.5 C 243.833,231.5 244.167,231.5 244.5,231.5C 246.5,232.833 248.5,232.833 250.5,231.5C 251.338,231.842 251.672,232.508 251.5,233.5C 248.302,234.036 245.635,233.369 243.5,231.5 Z"/></g>
<g><path style="opacity:1" fill="#716f6e" d="M 259.5,231.5 C 261.833,232.833 264.167,232.833 266.5,231.5C 267.043,231.56 267.376,231.893 267.5,232.5C 264.5,233.833 261.5,233.833 258.5,232.5C 258.624,231.893 258.957,231.56 259.5,231.5 Z"/></g>
<g><path style="opacity:1" fill="#8e9cab" d="M 302.5,212.5 C 303.289,212.783 303.956,213.283 304.5,214C 303.636,215.137 302.636,216.47 301.5,218C 304.167,218.667 304.167,219.333 301.5,220C 304.029,222.802 303.862,225.302 301,227.5C 300.505,229.473 300.338,231.473 300.5,233.5C 299.5,233.5 298.5,233.5 297.5,233.5C 297.771,239.626 295.271,244.626 290,248.5C 289.667,250.5 289.333,252.5 289,254.5C 285.89,256.636 282.723,258.636 279.5,260.5C 279.678,257.784 280.178,255.117 281,252.5C 286.47,249.373 288.804,244.706 288,238.5C 286.175,239.571 285.008,238.904 284.5,236.5C 286.44,237.694 288.273,237.694 290,236.5C 292.143,234.007 294.309,231.673 296.5,229.5C 297.047,226.425 298.047,223.425 299.5,220.5C 298.741,217.323 299.741,214.656 302.5,212.5 Z"/></g>
<g><path style="opacity:1" fill="#c3c0bc" d="M 147.5,154.5 C 147.5,163.167 147.5,171.833 147.5,180.5C 146.971,182.583 145.971,184.417 144.5,186C 145.094,186.464 145.761,186.631 146.5,186.5C 145.834,188.673 144.667,189.007 143,187.5C 140.953,188.609 138.787,189.276 136.5,189.5C 136.255,194.263 133.921,196.097 129.5,195C 132.101,197.545 134.601,197.712 137,195.5C 137.333,196.5 137.667,197.5 138,198.5C 142.466,194.215 143.632,195.215 141.5,201.5C 142.5,201.5 143.5,201.5 144.5,201.5C 144.833,203.5 145.167,205.5 145.5,207.5C 148.689,207.858 151.689,208.525 154.5,209.5C 151.813,209.336 149.146,209.503 146.5,210C 147.416,210.374 148.25,210.874 149,211.5C 149.667,217.5 149.667,223.5 149,229.5C 148.5,230.667 147.667,231.5 146.5,232C 149.146,232.497 151.813,232.664 154.5,232.5C 154.5,232.833 154.5,233.167 154.5,233.5C 154.663,235.857 154.497,238.19 154,240.5C 152.63,246.31 150.797,251.976 148.5,257.5C 148.863,258.183 149.196,258.85 149.5,259.5C 149.5,261.167 149.5,262.833 149.5,264.5C 147.385,262.109 144.719,260.776 141.5,260.5C 141.297,258.362 140.297,256.695 138.5,255.5C 139.667,252.8 139.5,250.133 138,247.5C 137.329,246.748 136.496,246.414 135.5,246.5C 134.957,246.44 134.624,246.107 134.5,245.5C 135.325,244.614 136.325,244.281 137.5,244.5C 137.502,242.169 136.669,240.169 135,238.5C 133.982,239.706 133.482,239.373 133.5,237.5C 134.037,236.259 134.704,235.092 135.5,234C 135.164,232.97 134.497,232.47 133.5,232.5C 133.822,230.525 133.822,228.858 133.5,227.5C 134.052,225.669 134.052,224.003 133.5,222.5C 131.5,223.167 129.5,223.833 127.5,224.5C 127.346,223.091 127.179,221.424 127,219.5C 126.751,220.624 126.251,221.624 125.5,222.5C 125.167,222.333 124.833,222.167 124.5,222C 125.791,219.728 126.457,217.561 126.5,215.5C 128.382,217.693 128.882,217.027 128,213.5C 127.107,214.711 126.274,214.711 125.5,213.5C 126.247,211.711 125.914,210.044 124.5,208.5C 124.167,208.5 123.833,208.5 123.5,208.5C 123.244,206.208 123.577,204.041 124.5,202C 123.5,201.167 122.5,200.333 121.5,199.5C 122.747,197.958 122.747,196.458 121.5,195C 122.793,194.51 124.127,194.343 125.5,194.5C 125.5,192.833 125.5,191.167 125.5,189.5C 126.675,189.719 127.675,189.386 128.5,188.5C 129.348,186.591 129.682,184.591 129.5,182.5C 132.14,178.586 133.807,174.252 134.5,169.5C 137.797,166.348 140.63,162.681 143,158.5C 143.654,159.696 144.154,159.696 144.5,158.5C 144.023,157.522 143.357,156.689 142.5,156C 143.833,155 143.833,154 142.5,153C 143.333,152.167 144.167,151.333 145,150.5C 145.122,152.437 145.955,153.77 147.5,154.5 Z"/></g>
<g><path style="opacity:1" fill="#6a8197" d="M 82.5,205.5 C 83.0065,206.859 84.0065,207.859 85.5,208.5C 84.5396,209.812 84.7063,211.146 86,212.5C 88.0713,213.364 89.738,214.697 91,216.5C 91.6838,217.784 91.5171,218.951 90.5,220C 92.6974,223.47 94.0308,227.303 94.5,231.5C 94.8797,229.979 95.0464,228.313 95,226.5C 95.3333,226.833 95.6667,227.167 96,227.5C 96.3333,226.5 96.6667,225.5 97,224.5C 98.5333,224.944 100.033,225.277 101.5,225.5C 102.244,226.991 102.91,228.491 103.5,230C 102.274,232.601 102.94,233.435 105.5,232.5C 106.5,232.833 107.167,233.5 107.5,234.5C 106.263,235.281 105.263,236.281 104.5,237.5C 106.287,238.316 107.954,239.316 109.5,240.5C 108.975,241.192 108.308,241.692 107.5,242C 109.076,242.44 110.41,243.273 111.5,244.5C 112.251,243.624 112.751,242.624 113,241.5C 113.333,242.167 113.667,242.833 114,243.5C 115.388,242.446 116.888,242.28 118.5,243C 115.946,245.269 115.946,247.602 118.5,250C 117.833,250.667 117.167,251.333 116.5,252C 119.735,256.058 123.068,259.891 126.5,263.5C 126.5,263.833 126.5,264.167 126.5,264.5C 124.983,264.489 123.816,263.823 123,262.5C 120.651,265.954 117.818,266.287 114.5,263.5C 113.702,265.078 113.202,266.744 113,268.5C 111.596,265.456 110.096,262.456 108.5,259.5C 104.612,258.108 101.446,255.774 99,252.5C 96.1187,244.267 91.7854,236.933 86,230.5C 84.2313,224.575 82.398,218.742 80.5,213C 80.6462,210.24 81.3128,207.74 82.5,205.5 Z"/></g>
<g><path style="opacity:1" fill="#a4acb6" d="M 275.5,240.5 C 277.612,240.602 279.612,241.102 281.5,242C 280.751,243.734 280.251,245.567 280,247.5C 279.25,248.126 278.416,248.626 277.5,249C 277.833,249.333 278.167,249.667 278.5,250C 277.107,251.171 276.273,252.671 276,254.5C 274.736,256.607 272.903,257.607 270.5,257.5C 270.688,259.103 270.188,260.437 269,261.5C 268.667,261.167 268.333,260.833 268,260.5C 266.829,262.616 265.329,263.282 263.5,262.5C 264.404,259.602 265.738,256.936 267.5,254.5C 270.763,252.741 273.597,250.408 276,247.5C 277.964,242.736 276.964,242.403 273,246.5C 272.756,244.07 273.589,242.07 275.5,240.5 Z"/></g>
<g><path style="opacity:1" fill="#d5cdc2" d="M 229.5,211.5 C 229.334,216.844 229.501,222.177 230,227.5C 232.58,225.309 235.08,225.642 237.5,228.5C 236.41,230.003 235.243,230.336 234,229.5C 233.74,231.618 232.74,233.284 231,234.5C 231.063,238.226 230.229,241.893 228.5,245.5C 229.79,246.408 231.123,246.241 232.5,245C 234.394,243.921 234.727,242.587 233.5,241C 235.878,240.489 238.212,239.822 240.5,239C 239.09,238.632 238.09,237.799 237.5,236.5C 237.938,235.494 238.604,235.494 239.5,236.5C 240.578,234.539 241.911,232.872 243.5,231.5C 245.635,233.369 248.302,234.036 251.5,233.5C 251.156,234.683 251.822,235.516 253.5,236C 250.893,238.46 248.56,241.126 246.5,244C 247.448,244.483 248.448,244.649 249.5,244.5C 249.369,247.329 250.369,248.662 252.5,248.5C 249.128,249.269 246.295,250.935 244,253.5C 240.858,251.052 237.692,251.219 234.5,254C 235.952,255.517 237.452,255.684 239,254.5C 240.171,255.34 241.338,256.173 242.5,257C 242.167,257.333 241.833,257.667 241.5,258C 244.723,259.572 248.056,260.739 251.5,261.5C 248.972,262.816 248.972,263.983 251.5,265C 249.5,265 247.5,265 245.5,265C 245.5,266.333 245.5,267.667 245.5,269C 242.368,271.082 239.368,273.248 236.5,275.5C 235.311,276.429 233.978,276.762 232.5,276.5C 232.649,277.552 232.483,278.552 232,279.5C 231.667,279.167 231.333,278.833 231,278.5C 227.02,281.42 223.354,281.086 220,277.5C 218.984,278.634 218.317,278.301 218,276.5C 217.329,277.252 216.496,277.586 215.5,277.5C 212.527,277.449 211.527,276.282 212.5,274C 212.138,272.775 211.638,271.609 211,270.5C 208.7,273.231 205.866,274.731 202.5,275C 204.701,274.223 204.701,273.056 202.5,271.5C 201.686,269.234 201.186,266.9 201,264.5C 199.488,263.743 198.154,262.743 197,261.5C 196.333,265.5 195.667,265.5 195,261.5C 194.667,261.833 194.333,262.167 194,262.5C 193.29,261.027 192.124,260.36 190.5,260.5C 190.719,261.675 190.386,262.675 189.5,263.5C 189.213,262.8 188.88,262.133 188.5,261.5C 188.369,260.624 188.702,259.957 189.5,259.5C 192.848,258.915 195.848,257.582 198.5,255.5C 199.749,257.475 201.249,257.809 203,256.5C 206.049,257.61 209.216,258.277 212.5,258.5C 213.052,256.669 213.052,255.003 212.5,253.5C 213.083,251.998 213.916,250.665 215,249.5C 216.046,251.09 217.213,252.59 218.5,254C 218.153,255.569 217.986,257.402 218,259.5C 220.79,255.562 221.29,251.228 219.5,246.5C 219.722,244.945 220.389,243.611 221.5,242.5C 218.84,239.93 219.506,238.43 223.5,238C 223.167,237.667 222.833,237.333 222.5,237C 223.793,236.51 225.127,236.343 226.5,236.5C 226.5,235.5 226.5,234.5 226.5,233.5C 225.167,233.5 223.833,233.5 222.5,233.5C 225.06,232.78 226.893,231.113 228,228.5C 228.173,222.652 228.673,216.985 229.5,211.5 Z"/></g>
<g><path style="opacity:1" fill="#cfc9c1" d="M 188.5,261.5 C 188.88,262.133 189.213,262.8 189.5,263.5C 190.386,262.675 190.719,261.675 190.5,260.5C 192.124,260.36 193.29,261.027 194,262.5C 194.333,262.167 194.667,261.833 195,261.5C 195.667,265.5 196.333,265.5 197,261.5C 198.154,262.743 199.488,263.743 201,264.5C 201.186,266.9 201.686,269.234 202.5,271.5C 204.701,273.056 204.701,274.223 202.5,275C 205.866,274.731 208.7,273.231 211,270.5C 211.638,271.609 212.138,272.775 212.5,274C 211.527,276.282 212.527,277.449 215.5,277.5C 214.863,279.14 213.696,280.806 212,282.5C 211.439,281.978 210.772,281.645 210,281.5C 207.209,282.317 204.542,283.317 202,284.5C 201.167,284.333 200.333,284.167 199.5,284C 200.716,282.26 202.382,281.26 204.5,281C 200.625,279.653 200.625,278.486 204.5,277.5C 203.833,277.167 203.167,276.833 202.5,276.5C 196.921,279.258 191.088,281.258 185,282.5C 183.883,281.051 183.216,279.384 183,277.5C 182.667,278.167 182.333,278.833 182,279.5C 178.949,278.188 175.783,277.188 172.5,276.5C 170.889,277.32 170.222,278.654 170.5,280.5C 169.5,280.5 168.5,280.5 167.5,280.5C 165.896,279.713 165.229,278.38 165.5,276.5C 162.45,277.077 160.45,275.91 159.5,273C 160.784,272.316 161.951,272.483 163,273.5C 165.613,271.449 168.446,269.616 171.5,268C 168.968,264.887 166.301,264.721 163.5,267.5C 161.587,266.627 159.753,265.627 158,264.5C 157.374,266.991 156.541,266.991 155.5,264.5C 155.167,264.667 154.833,264.833 154.5,265C 155.473,267.635 157.14,269.635 159.5,271C 158.584,271.374 157.75,271.874 157,272.5C 155.641,270.308 153.808,268.641 151.5,267.5C 152.444,265.863 151.777,264.863 149.5,264.5C 149.5,262.833 149.5,261.167 149.5,259.5C 150.956,257.582 152.623,256.915 154.5,257.5C 154.291,256.914 153.957,256.414 153.5,256C 155.758,252.6 155.758,249.1 153.5,245.5C 154.472,243.695 155.639,242.028 157,240.5C 157.471,243.471 158.638,246.138 160.5,248.5C 166.519,249.638 166.852,251.471 161.5,254C 163.256,254.202 164.922,254.702 166.5,255.5C 163.882,258.692 164.882,260.025 169.5,259.5C 169.67,258.178 169.337,257.011 168.5,256C 169,255.5 169.5,255 170,254.5C 171.684,256.351 173.517,258.018 175.5,259.5C 174.282,260.803 174.615,261.803 176.5,262.5C 174.887,263.427 173.221,264.261 171.5,265C 173.883,265.065 174.55,265.898 173.5,267.5C 176.216,267.732 178.549,266.565 180.5,264C 180.043,263.586 179.709,263.086 179.5,262.5C 182.585,262.079 185.585,261.746 188.5,261.5 Z"/></g>
<g><path style="opacity:1" fill="#afb4bb" d="M 135.5,246.5 C 136.496,246.414 137.329,246.748 138,247.5C 139.5,250.133 139.667,252.8 138.5,255.5C 140.297,256.695 141.297,258.362 141.5,260.5C 144.719,260.776 147.385,262.109 149.5,264.5C 151.777,264.863 152.444,265.863 151.5,267.5C 153.808,268.641 155.641,270.308 157,272.5C 157.75,271.874 158.584,271.374 159.5,271C 157.14,269.635 155.473,267.635 154.5,265C 154.833,264.833 155.167,264.667 155.5,264.5C 156.541,266.991 157.374,266.991 158,264.5C 159.753,265.627 161.587,266.627 163.5,267.5C 166.301,264.721 168.968,264.887 171.5,268C 168.446,269.616 165.613,271.449 163,273.5C 161.951,272.483 160.784,272.316 159.5,273C 160.45,275.91 162.45,277.077 165.5,276.5C 165.229,278.38 165.896,279.713 167.5,280.5C 170.447,280.942 173.113,282.108 175.5,284C 178.047,284.66 180.547,284.493 183,283.5C 183.5,283.833 184,284.167 184.5,284.5C 183.398,285.176 182.398,285.842 181.5,286.5C 179.883,287.038 178.216,287.371 176.5,287.5C 176.5,288.5 176.5,289.5 176.5,290.5C 174.883,289.962 173.216,289.629 171.5,289.5C 171.5,288.167 171.5,286.833 171.5,285.5C 168.4,285.221 165.9,283.888 164,281.5C 162.404,282.497 160.904,283.663 159.5,285C 155.49,285.357 151.49,285.19 147.5,284.5C 147.47,283.503 147.97,282.836 149,282.5C 150.101,283.291 150.934,283.291 151.5,282.5C 150.289,280.578 148.956,278.745 147.5,277C 152.486,275.868 152.486,274.201 147.5,272C 147.833,271.667 148.167,271.333 148.5,271C 147.5,270.333 146.5,270.333 145.5,271C 146.696,271.654 146.696,272.154 145.5,272.5C 144.298,269.132 141.965,266.966 138.5,266C 141.525,265.846 143.191,264.346 143.5,261.5C 142.167,261.5 140.833,261.5 139.5,261.5C 139.649,262.552 139.483,263.552 139,264.5C 138.08,264.07 137.247,263.736 136.5,263.5C 139.464,260.241 139.131,257.407 135.5,255C 136.167,253.667 137.167,252.667 138.5,252C 136.658,250.654 135.658,248.821 135.5,246.5 Z"/></g>
<g><path style="opacity:1" fill="#9ba6b3" d="M 132.5,232.5 C 132.833,232.5 133.167,232.5 133.5,232.5C 134.497,232.47 135.164,232.97 135.5,234C 134.704,235.092 134.037,236.259 133.5,237.5C 133.482,239.373 133.982,239.706 135,238.5C 136.669,240.169 137.502,242.169 137.5,244.5C 136.325,244.281 135.325,244.614 134.5,245.5C 134.624,246.107 134.957,246.44 135.5,246.5C 135.658,248.821 136.658,250.654 138.5,252C 137.167,252.667 136.167,253.667 135.5,255C 139.131,257.407 139.464,260.241 136.5,263.5C 137.247,263.736 138.08,264.07 139,264.5C 139.483,263.552 139.649,262.552 139.5,261.5C 140.833,261.5 142.167,261.5 143.5,261.5C 143.191,264.346 141.525,265.846 138.5,266C 141.965,266.966 144.298,269.132 145.5,272.5C 146.696,272.154 146.696,271.654 145.5,271C 146.5,270.333 147.5,270.333 148.5,271C 148.167,271.333 147.833,271.667 147.5,272C 152.486,274.201 152.486,275.868 147.5,277C 148.956,278.745 150.289,280.578 151.5,282.5C 150.934,283.291 150.101,283.291 149,282.5C 147.97,282.836 147.47,283.503 147.5,284.5C 145.5,284.5 143.5,284.5 141.5,284.5C 141.5,283.5 141.5,282.5 141.5,281.5C 143.695,282.608 145.695,282.441 147.5,281C 145.469,280.368 143.802,279.201 142.5,277.5C 141.559,275.228 140.226,273.228 138.5,271.5C 138.709,270.914 139.043,270.414 139.5,270C 136.614,269.394 134.448,267.894 133,265.5C 132.626,267.491 131.793,269.158 130.5,270.5C 130.023,267.975 128.69,265.975 126.5,264.5C 126.5,264.167 126.5,263.833 126.5,263.5C 125.505,260.179 124.505,256.846 123.5,253.5C 125.644,252.114 126.977,250.614 127.5,249C 127,248.5 126.5,248 126,247.5C 125.667,244.5 125.333,241.5 125,238.5C 124.395,236.519 123.395,236.185 122,237.5C 122.355,236.041 122.189,234.707 121.5,233.5C 125.371,233.815 129.038,233.482 132.5,232.5 Z"/></g>
<g><path style="opacity:1" fill="#6f859a" d="M 262.5,271.5 C 261.533,272.806 260.199,273.473 258.5,273.5C 258.702,275.989 258.202,278.323 257,280.5C 255.701,280.034 254.201,280.034 252.5,280.5C 252.5,281.833 252.5,283.167 252.5,284.5C 251.448,284.351 250.448,284.517 249.5,285C 247.894,288.305 245.227,289.805 241.5,289.5C 242.694,288.728 243.694,287.728 244.5,286.5C 246.129,285.375 247.629,284.041 249,282.5C 251.237,275.375 255.737,271.709 262.5,271.5 Z"/></g>
<g><path style="opacity:1" fill="#98a3b1" d="M 244.5,286.5 C 243.694,287.728 242.694,288.728 241.5,289.5C 239.804,289.685 238.471,290.519 237.5,292C 232.654,292.469 227.987,293.636 223.5,295.5C 218.817,294.609 214.483,295.609 210.5,298.5C 209.914,298.291 209.414,297.957 209,297.5C 205.412,302.384 200.579,305.384 194.5,306.5C 193.962,304.883 193.629,303.216 193.5,301.5C 197.55,301.881 201.217,300.881 204.5,298.5C 198.939,298.544 193.439,297.544 188,295.5C 183.37,295.941 179.537,294.274 176.5,290.5C 176.5,289.5 176.5,288.5 176.5,287.5C 178.216,287.371 179.883,287.038 181.5,286.5C 187.733,289.475 193.733,289.142 199.5,285.5C 200.192,286.025 200.692,286.692 201,287.5C 203.173,284.723 203.673,284.89 202.5,288C 204.81,288.497 207.143,288.663 209.5,288.5C 209.351,287.448 209.517,286.448 210,285.5C 210.667,286.833 211.333,286.833 212,285.5C 212.39,289.166 213.557,289.332 215.5,286C 218.969,283.626 221.803,284.126 224,287.5C 226.911,285.876 230.078,284.71 233.5,284C 237.151,280.667 241.484,279.334 246.5,280C 245.526,282.287 244.193,284.287 242.5,286C 243.094,286.464 243.761,286.631 244.5,286.5 Z"/></g>
<g><path style="opacity:1" fill="#73879c" d="M 147.5,284.5 C 151.49,285.19 155.49,285.357 159.5,285C 160.904,283.663 162.404,282.497 164,281.5C 165.9,283.888 168.4,285.221 171.5,285.5C 171.5,286.833 171.5,288.167 171.5,289.5C 173.216,289.629 174.883,289.962 176.5,290.5C 179.537,294.274 183.37,295.941 188,295.5C 193.439,297.544 198.939,298.544 204.5,298.5C 201.217,300.881 197.55,301.881 193.5,301.5C 193.629,303.216 193.962,304.883 194.5,306.5C 188.515,306.696 182.515,306.196 176.5,305C 173.174,301.006 169.841,297.006 166.5,293C 161.409,291.387 156.242,290.22 151,289.5C 150.667,289.833 150.333,290.167 150,290.5C 146.743,288.077 143.243,286.244 139.5,285C 139.86,281.534 138.194,279.034 134.5,277.5C 133.529,274.874 132.195,272.54 130.5,270.5C 131.793,269.158 132.626,267.491 133,265.5C 134.448,267.894 136.614,269.394 139.5,270C 139.043,270.414 138.709,270.914 138.5,271.5C 140.226,273.228 141.559,275.228 142.5,277.5C 143.802,279.201 145.469,280.368 147.5,281C 145.695,282.441 143.695,282.608 141.5,281.5C 141.5,282.5 141.5,283.5 141.5,284.5C 143.5,284.5 145.5,284.5 147.5,284.5 Z"/></g>
</svg>
